<svg width="152" height="83" viewBox="0 0 152 83" fill="none" xmlns="http://www.w3.org/2000/svg">
<path d="M149.5 2.5H2.5V27.2C2.5 27.2 17.8289 25.8623 17.8289 43.1957C17.8289 60.529 2.5 58.0326 2.5 58.0326V80.5H149.5V58.0326C149.5 58.0326 136.529 58.7957 136.529 43.1957C136.529 27.5957 149.5 27.2 149.5 27.2V2.5Z" stroke="#4B5563" stroke-width="5"/>
<circle cx="109.5" cy="42.5" r="20.5" stroke="#4B5563" stroke-width="5"/>
<path d="M104.492 40.276L103.34 50.5H100.412L102.716 32.86L109.604 44.26L116.516 32.86L118.82 50.5H115.892L114.716 40.276L109.604 48.94L104.492 40.276Z" fill="#4B5563"/>
<path d="M38.75 61.9211C38.75 61.9211 38.75 67.5 34.5313 67.5C30.3125 67.5 30.3125 61.9211 30.3125 61.9211V58.9921C29.4688 58.0623 28.7891 57.0283 28.2734 55.8902C27.7578 54.7521 27.5 53.508 27.5 52.1579V25.6579C27.5 21.7991 29.3047 18.9752 32.9141 17.1863C36.5234 15.3973 42.2188 14.5019 50 14.5C58.0625 14.5 63.8281 15.3601 67.2969 17.0803C70.7656 18.8004 72.5 21.6596 72.5 25.6579V52.1579C72.5 53.5061 72.2422 54.7502 71.7266 55.8902C71.2109 57.0302 70.5312 58.0641 69.6875 58.9921V61.9211C69.6875 61.9211 70.5 67.5 65.4688 67.5C60.4375 67.5 61.25 61.9211 61.25 61.9211H38.75ZM33.125 36.8158H66.875V28.4474H33.125V36.8158ZM41.9643 47.9737C43.1362 47.9737 45.9645 46.3954 46.7857 45.5827C47.607 44.77 44.3769 50.5326 44.375 49.3684C44.3731 48.2043 37.9869 53.1444 37.1694 52.3336C36.3519 51.5228 38.3185 55.1503 37.1429 55.1466C35.9672 55.1429 34.7321 47.9737 37.1694 46.406C36.3538 47.2242 35.9431 48.2117 35.9375 49.3684C35.9319 50.5251 36.3425 51.5135 37.1694 52.3336C37.9963 53.1537 40.7999 47.9811 41.9643 47.9737ZM59.8438 53.5526C61.0156 53.5526 62.0122 53.1463 62.8334 52.3336C63.6547 51.521 64.0644 50.5326 64.0625 49.3684C64.0606 48.2043 64.4782 58.3484 63.6607 57.5376C62.8432 56.7268 61.0194 53.5563 59.8438 53.5526C58.6681 53.5489 59.8438 50.2281 57.6339 46.7782C68.4821 50.3647 64.0681 48.2117 64.0625 49.3684C64.0569 50.5251 59.0169 46.8593 59.8438 47.6794C60.6706 48.4995 58.6794 53.5601 59.8438 53.5526Z" fill="#4B5563"/>
<circle cx="72" cy="34" r="3.5" fill="#4B5563"/>
<circle cx="27" cy="34" r="3.5" fill="#4B5563"/>
</svg>
